<svg width="56" height="62" viewBox="0 0 56 62" fill="none" xmlns="http://www.w3.org/2000/svg">
<g clip-path="url(#clip0_228_3995)">
<path d="M23.6944 7.15995C23.9284 0.225305 16.1541 -0.858233 13.3798 0.520182C14.1025 8.51747 20.1513 8.69393 23.6944 7.15918V7.15995Z" fill="#FBEBEA"/>
<path d="M54.0729 23.4092C54.2087 23.7575 54.2785 23.9378 54.3015 23.9966C54.2693 23.9153 54.1772 23.6762 54.0729 23.4092Z" fill="#FBEBEA"/>
<path d="M54.0031 23.2262C54.0261 23.2866 54.0499 23.3477 54.0729 23.4081C54.0506 23.3485 54.0292 23.2943 54.0023 23.2239C53.4606 21.8292 53.7315 22.5273 54.0015 23.2231C52.2737 18.769 48.822 15.0973 44.3084 13.4983C39.4081 11.7639 34.3006 12.7484 29.4509 14.0989C29.3589 11.4265 29.5829 8.74548 29.9596 6.09933C30.1729 4.60559 31.1949 1.51673 28.6607 1.4107C26.5577 1.32247 26.5516 4.16289 26.3467 5.61096C25.9508 8.38946 25.7176 11.2051 25.7928 14.0138C24.6274 13.818 23.4773 13.3807 22.3165 13.1377C20.5856 12.7778 18.8233 12.5526 17.0548 12.5502C13.6468 12.5502 10.2832 13.4612 7.479 15.451C2.03166 19.3177 -0.0889603 26.0627 0.00310731 32.5431C0.103614 39.5598 2.45978 46.2607 6.42252 51.9833C8.17181 54.5103 10.1827 56.9335 12.6685 58.7562C15.0838 60.5278 17.7821 61.3575 20.7107 61.78C21.9543 61.9611 23.2203 61.9658 24.4601 61.7615C25.5427 61.5835 26.5569 61.1222 27.6303 60.9395C28.4413 60.8018 29.5852 61.4457 30.3701 61.6214C31.7081 61.9248 33.0845 61.9875 34.4479 61.8311C39.4357 61.2576 43.3869 58.9884 46.6684 55.1828C53.8865 46.8148 58.1883 34.0043 54.0038 23.2254L54.0031 23.2262ZM14.9119 29.9039C12.3509 29.9039 10.2756 27.8103 10.2756 25.2269C10.2756 22.6434 12.3509 20.5499 14.9119 20.5499C17.4729 20.5499 19.5483 22.6434 19.5483 25.2269C19.5483 27.8103 17.4722 29.9039 14.9119 29.9039Z" fill="#FBEBEA"/>
</g>
<defs>
<clipPath id="clip0_228_3995">
<rect width="55.6465" height="61.9165" fill="white"/>
</clipPath>
</defs>
</svg>
