<svg width="59" height="70" viewBox="0 0 59 70" fill="none" xmlns="http://www.w3.org/2000/svg">
<g clip-path="url(#clip0_228_4002)">
<path d="M58.3406 36.1988C53.6723 29.7352 44.7062 29.2801 34.6602 34.4131C24.6133 39.5444 22.1745 49.0684 17.5614 55.7343C13.8027 61.1655 9.6583 64.3908 7.16862 65.4554C10.9943 61.074 16.9392 53.3156 16.9392 53.3156C16.9392 53.3156 22.5229 43.7689 20.4495 45.674C18.8083 47.1851 8.36556 58.2733 4.10844 62.8047C4.73913 60.1227 7.21948 55.396 11.9055 50.7321C17.6224 45.0419 32.14 36.8545 35.5681 25.8709C38.9962 14.8837 34.0609 0.707113 26.9538 0.0278829C23.7461 -0.279035 19.6035 1.93653 16.6128 7.23434C13.3992 12.9289 9.40992 17.6068 7.81371 22.3483C5.27656 29.8878 9.38026 40.5558 5.47153 49.2472C2.71398 55.3812 -2.07126 60.1759 0.982989 67.2394C1.09404 67.4966 1.26273 67.6326 1.46024 67.6814C1.51195 68.5359 1.99514 68.9867 2.82842 68.8873C2.90556 69.0852 3.06069 69.2378 3.33026 69.3154C10.5772 71.3627 14.4707 65.778 19.9519 62.0549C27.721 56.7763 31.4296 60.863 39.1699 59.426C44.847 58.3736 47.3171 54.1422 52.3084 50.0206C56.9529 46.185 60.2937 38.9027 58.3406 36.198V36.1988ZM22.0168 18.5572C25.027 10.94 26.4969 8.03477 27.376 9.27988C28.4407 10.7866 16.2822 39.1843 13.7611 41.6283C11.2401 44.0697 19.0067 26.1752 22.0177 18.5572H22.0168ZM38.7173 47.3473C34.2448 50.3999 25.8026 56.4815 27.2217 53.0645C27.9143 51.3947 37.2355 45.1012 49.6814 38.8198C63.2284 33.5142 43.188 44.292 38.7164 47.3464L38.7173 47.3473Z" fill="#EEF9EF"/>
<path d="M38.3717 26.1212C40.5588 23.6048 49.8546 12.9987 50.7328 13.4669C51.5695 13.9125 42.3228 25.5082 38.0877 29.9393C42.5017 27.4482 51.9874 29.1781 51.9874 29.1781C51.9874 29.1781 54.3864 28.0307 54.0795 24.9554C53.7726 21.8801 62.008 11.4083 51.8645 7.80987C43.2646 4.759 37.3079 9.30173 37.3079 9.30173C38.9066 13.6866 38.9236 20.8975 38.3717 26.122V26.1212Z" fill="#EEF9EF"/>
</g>
<defs>
<clipPath id="clip0_228_4002">
<rect width="58.9097" height="69.754" fill="white"/>
</clipPath>
</defs>
</svg>
