<svg width="1440" height="4472" viewBox="0 0 1440 4472" fill="none" xmlns="http://www.w3.org/2000/svg">
<g clip-path="url(#clip0_57_619)">
<rect width="1440" height="4472" fill="#FCF8F8"/>
<mask id="path-1-outside-1_57_619" maskUnits="userSpaceOnUse" x="546" y="710" width="891" height="104" fill="black">
<rect fill="white" x="546" y="710" width="891" height="104"/>
<path d="M621.464 748.84C621.464 754.301 620.184 759.293 617.624 763.816C615.149 768.253 611.352 771.837 606.232 774.568C601.197 777.213 595.011 778.536 587.672 778.536H575.256V809H550.168V718.76H587.672C594.925 718.76 601.069 720.04 606.104 722.6C611.224 725.16 615.064 728.701 617.624 733.224C620.184 737.747 621.464 742.952 621.464 748.84ZM585.24 758.568C592.323 758.568 595.864 755.325 595.864 748.84C595.864 742.269 592.323 738.984 585.24 738.984H575.256V758.568H585.24ZM698.871 749.864C701.687 745.768 705.1 742.525 709.111 740.136C713.122 737.747 717.431 736.552 722.039 736.552V763.304H714.999C709.538 763.304 705.484 764.371 702.839 766.504C700.194 768.637 698.871 772.349 698.871 777.64V809H673.783V737.192H698.871V749.864ZM806.681 809.896C799.513 809.896 793.07 808.403 787.353 805.416C781.721 802.429 777.284 798.163 774.041 792.616C770.798 787.069 769.177 780.541 769.177 773.032C769.177 765.608 770.798 759.123 774.041 753.576C777.369 748.029 781.849 743.763 787.481 740.776C793.198 737.789 799.641 736.296 806.809 736.296C813.977 736.296 820.377 737.789 826.009 740.776C831.726 743.763 836.206 748.029 839.449 753.576C842.777 759.123 844.441 765.608 844.441 773.032C844.441 780.456 842.777 786.984 839.449 792.616C836.206 798.163 831.726 802.429 826.009 805.416C820.292 808.403 813.849 809.896 806.681 809.896ZM806.681 788.136C810.18 788.136 813.081 786.856 815.385 784.296C817.774 781.651 818.969 777.896 818.969 773.032C818.969 768.168 817.774 764.456 815.385 761.896C813.081 759.336 810.222 758.056 806.809 758.056C803.396 758.056 800.537 759.336 798.233 761.896C795.929 764.456 794.777 768.168 794.777 773.032C794.777 777.981 795.886 781.736 798.105 784.296C800.324 786.856 803.182 788.136 806.681 788.136ZM892.792 773.032C892.792 765.608 894.115 759.123 896.76 753.576C899.491 748.029 903.203 743.763 907.896 740.776C912.589 737.789 917.795 736.296 923.512 736.296C928.12 736.296 932.216 737.277 935.8 739.24C939.469 741.117 942.328 743.72 944.376 747.048V714.28H969.592V809H944.376V799.016C942.413 802.344 939.64 804.989 936.056 806.952C932.472 808.915 928.248 809.896 923.384 809.896C917.667 809.896 912.461 808.403 907.768 805.416C903.16 802.429 899.491 798.163 896.76 792.616C894.115 786.984 892.792 780.456 892.792 773.032ZM944.504 773.032C944.504 768.424 943.224 764.797 940.664 762.152C938.189 759.507 935.117 758.184 931.448 758.184C927.693 758.184 924.579 759.507 922.104 762.152C919.629 764.712 918.392 768.339 918.392 773.032C918.392 777.64 919.629 781.309 922.104 784.04C924.579 786.685 927.693 788.008 931.448 788.008C935.117 788.008 938.189 786.685 940.664 784.04C943.224 781.395 944.504 777.725 944.504 773.032ZM1099.6 737.192V809H1074.38V798.76C1072.25 802.003 1069.31 804.648 1065.55 806.696C1061.8 808.659 1057.49 809.64 1052.62 809.64C1044.26 809.64 1037.65 806.909 1032.78 801.448C1028.01 795.901 1025.62 788.392 1025.62 778.92V737.192H1050.58V775.72C1050.58 779.816 1051.64 783.059 1053.78 785.448C1055.99 787.752 1058.9 788.904 1062.48 788.904C1066.15 788.904 1069.05 787.752 1071.18 785.448C1073.32 783.059 1074.38 779.816 1074.38 775.72V737.192H1099.6ZM1152.02 773.032C1152.02 765.608 1153.56 759.123 1156.63 753.576C1159.7 748.029 1163.97 743.763 1169.43 740.776C1174.98 737.789 1181.29 736.296 1188.37 736.296C1197.5 736.296 1205.18 738.813 1211.41 743.848C1217.64 748.797 1221.65 755.752 1223.45 764.712H1196.82C1195.29 760.019 1192.3 757.672 1187.86 757.672C1184.7 757.672 1182.19 758.995 1180.31 761.64C1178.52 764.2 1177.62 767.997 1177.62 773.032C1177.62 778.067 1178.52 781.907 1180.31 784.552C1182.19 787.197 1184.7 788.52 1187.86 788.52C1192.38 788.52 1195.37 786.173 1196.82 781.48H1223.45C1221.65 790.355 1217.64 797.309 1211.41 802.344C1205.18 807.379 1197.5 809.896 1188.37 809.896C1181.29 809.896 1174.98 808.403 1169.43 805.416C1163.97 802.429 1159.7 798.163 1156.63 792.616C1153.56 787.069 1152.02 780.541 1152.02 773.032ZM1318.48 787.624V809H1307.6C1289.25 809 1280.08 799.912 1280.08 781.736V758.056H1271.24V737.192H1280.08V719.784H1305.29V737.192H1318.35V758.056H1305.29V782.12C1305.29 784.083 1305.72 785.491 1306.57 786.344C1307.51 787.197 1309.05 787.624 1311.18 787.624H1318.48ZM1402.81 809.896C1396.33 809.896 1390.53 808.829 1385.41 806.696C1380.37 804.477 1376.36 801.491 1373.37 797.736C1370.47 793.896 1368.85 789.587 1368.51 784.808H1392.83C1393.17 787.112 1394.24 788.904 1396.03 790.184C1397.82 791.464 1400.04 792.104 1402.69 792.104C1404.73 792.104 1406.36 791.677 1407.55 790.824C1408.75 789.971 1409.34 788.861 1409.34 787.496C1409.34 785.704 1408.36 784.381 1406.4 783.528C1404.44 782.675 1401.19 781.736 1396.67 780.712C1391.55 779.688 1387.28 778.536 1383.87 777.256C1380.46 775.976 1377.47 773.885 1374.91 770.984C1372.44 768.083 1371.2 764.157 1371.2 759.208C1371.2 754.941 1372.35 751.101 1374.65 747.688C1376.96 744.189 1380.33 741.416 1384.77 739.368C1389.29 737.32 1394.71 736.296 1401.02 736.296C1410.41 736.296 1417.79 738.6 1423.17 743.208C1428.54 747.816 1431.66 753.875 1432.51 761.384H1409.85C1409.43 759.08 1408.4 757.331 1406.78 756.136C1405.25 754.856 1403.16 754.216 1400.51 754.216C1398.46 754.216 1396.88 754.6 1395.77 755.368C1394.75 756.136 1394.24 757.203 1394.24 758.568C1394.24 760.275 1395.22 761.597 1397.18 762.536C1399.15 763.389 1402.3 764.285 1406.65 765.224C1411.86 766.333 1416.17 767.571 1419.58 768.936C1423.08 770.301 1426.11 772.52 1428.67 775.592C1431.32 778.579 1432.64 782.675 1432.64 787.88C1432.64 792.061 1431.4 795.816 1428.93 799.144C1426.54 802.472 1423.08 805.117 1418.56 807.08C1414.12 808.957 1408.87 809.896 1402.81 809.896Z"/>
</mask>
<path d="M617.624 763.816L614.143 761.846L614.137 761.857L614.131 761.868L617.624 763.816ZM606.232 774.568L608.093 778.109L608.103 778.103L608.114 778.097L606.232 774.568ZM575.256 778.536V774.536H571.256V778.536H575.256ZM575.256 809V813H579.256V809H575.256ZM550.168 809H546.168V813H550.168V809ZM550.168 718.76V714.76H546.168V718.76H550.168ZM606.104 722.6L604.291 726.166L604.303 726.172L604.315 726.178L606.104 722.6ZM617.624 733.224L614.143 735.194V735.194L617.624 733.224ZM575.256 738.984V734.984H571.256V738.984H575.256ZM575.256 758.568H571.256V762.568H575.256V758.568ZM621.464 748.84H617.464C617.464 753.647 616.345 757.955 614.143 761.846L617.624 763.816L621.105 765.786C624.023 760.632 625.464 754.955 625.464 748.84H621.464ZM617.624 763.816L614.131 761.868C612.081 765.543 608.891 768.617 604.35 771.039L606.232 774.568L608.114 778.097C613.813 775.058 618.218 770.964 621.117 765.764L617.624 763.816ZM606.232 774.568L604.371 771.027C600.053 773.296 594.545 774.536 587.672 774.536V778.536V782.536C595.476 782.536 602.342 781.131 608.093 778.109L606.232 774.568ZM587.672 778.536V774.536H575.256V778.536V782.536H587.672V778.536ZM575.256 778.536H571.256V809H575.256H579.256V778.536H575.256ZM575.256 809V805H550.168V809V813H575.256V809ZM550.168 809H554.168V718.76H550.168H546.168V809H550.168ZM550.168 718.76V722.76H587.672V718.76V714.76H550.168V718.76ZM587.672 718.76V722.76C594.469 722.76 599.955 723.961 604.291 726.166L606.104 722.6L607.917 719.034C602.184 716.119 595.382 714.76 587.672 714.76V718.76ZM606.104 722.6L604.315 726.178C608.799 728.42 612.014 731.434 614.143 735.194L617.624 733.224L621.105 731.254C618.114 725.969 613.649 721.9 607.893 719.022L606.104 722.6ZM617.624 733.224L614.143 735.194C616.32 739.04 617.464 743.549 617.464 748.84H621.464H625.464C625.464 742.355 624.048 736.454 621.105 731.254L617.624 733.224ZM585.24 758.568V762.568C589.315 762.568 593.117 761.643 595.909 759.086C598.768 756.468 599.864 752.794 599.864 748.84H595.864H591.864C591.864 751.371 591.189 752.561 590.507 753.186C589.757 753.872 588.248 754.568 585.24 754.568V758.568ZM595.864 748.84H599.864C599.864 744.858 598.777 741.158 595.928 738.516C593.137 735.926 589.326 734.984 585.24 734.984V738.984V742.984C588.236 742.984 589.738 743.685 590.488 744.38C591.18 745.023 591.864 746.251 591.864 748.84H595.864ZM585.24 738.984V734.984H575.256V738.984V742.984H585.24V738.984ZM575.256 738.984H571.256V758.568H575.256H579.256V738.984H575.256ZM575.256 758.568V762.568H585.24V758.568V754.568H575.256V758.568ZM698.871 749.864H694.871V762.743L702.167 752.13L698.871 749.864ZM722.039 736.552H726.039V732.552H722.039V736.552ZM722.039 763.304V767.304H726.039V763.304H722.039ZM702.839 766.504L705.35 769.618L702.839 766.504ZM698.871 809V813H702.871V809H698.871ZM673.783 809H669.783V813H673.783V809ZM673.783 737.192V733.192H669.783V737.192H673.783ZM698.871 737.192H702.871V733.192H698.871V737.192ZM698.871 749.864L702.167 752.13C704.678 748.478 707.675 745.647 711.158 743.572L709.111 740.136L707.064 736.7C702.526 739.403 698.696 743.058 695.575 747.598L698.871 749.864ZM709.111 740.136L711.158 743.572C714.558 741.547 718.162 740.552 722.039 740.552V736.552V732.552C716.7 732.552 711.685 733.946 707.064 736.7L709.111 740.136ZM722.039 736.552H718.039V763.304H722.039H726.039V736.552H722.039ZM722.039 763.304V759.304H714.999V763.304V767.304H722.039V763.304ZM714.999 763.304V759.304C709.141 759.304 704.003 760.426 700.328 763.39L702.839 766.504L705.35 769.618C706.965 768.315 709.934 767.304 714.999 767.304V763.304ZM702.839 766.504L700.328 763.39C696.316 766.626 694.871 771.819 694.871 777.64H698.871H702.871C702.871 772.88 704.071 770.649 705.35 769.618L702.839 766.504ZM698.871 777.64H694.871V809H698.871H702.871V777.64H698.871ZM698.871 809V805H673.783V809V813H698.871V809ZM673.783 809H677.783V737.192H673.783H669.783V809H673.783ZM673.783 737.192V741.192H698.871V737.192V733.192H673.783V737.192ZM698.871 737.192H694.871V749.864H698.871H702.871V737.192H698.871ZM787.353 805.416L785.479 808.95L785.49 808.956L785.501 808.961L787.353 805.416ZM774.041 792.616L777.494 790.597L774.041 792.616ZM774.041 753.576L770.611 751.518L770.599 751.538L770.588 751.557L774.041 753.576ZM787.481 740.776L785.629 737.231L785.618 737.236L785.607 737.242L787.481 740.776ZM826.009 740.776L824.135 744.31L824.146 744.316L824.157 744.321L826.009 740.776ZM839.449 753.576L835.996 755.595L836.007 755.614L836.019 755.634L839.449 753.576ZM839.449 792.616L836.005 790.581L836.001 790.589L835.996 790.597L839.449 792.616ZM826.009 805.416L824.157 801.871L826.009 805.416ZM815.385 784.296L812.417 781.615L812.412 781.62L815.385 784.296ZM815.385 761.896L812.412 764.572L812.436 764.599L812.461 764.625L815.385 761.896ZM798.105 784.296L795.082 786.916V786.916L798.105 784.296ZM806.681 809.896V805.896C800.085 805.896 794.289 804.527 789.205 801.871L787.353 805.416L785.501 808.961C791.851 812.279 798.941 813.896 806.681 813.896V809.896ZM787.353 805.416L789.227 801.882C784.257 799.247 780.365 795.507 777.494 790.597L774.041 792.616L770.588 794.635C774.203 800.818 779.185 805.612 785.479 808.95L787.353 805.416ZM774.041 792.616L777.494 790.597C774.666 785.76 773.177 779.953 773.177 773.032H769.177H765.177C765.177 781.13 766.931 788.379 770.588 794.635L774.041 792.616ZM769.177 773.032H773.177C773.177 766.206 774.662 760.439 777.494 755.595L774.041 753.576L770.588 751.557C766.935 757.806 765.177 765.01 765.177 773.032H769.177ZM774.041 753.576L777.471 755.634C780.43 750.702 784.376 746.95 789.355 744.31L787.481 740.776L785.607 737.242C779.322 740.575 774.308 745.357 770.611 751.518L774.041 753.576ZM787.481 740.776L789.333 744.321C794.417 741.665 800.213 740.296 806.809 740.296V736.296V732.296C799.069 732.296 791.979 733.913 785.629 737.231L787.481 740.776ZM806.809 736.296V740.296C813.406 740.296 819.149 741.666 824.135 744.31L826.009 740.776L827.883 737.242C821.605 733.913 814.548 732.296 806.809 732.296V736.296ZM826.009 740.776L824.157 744.321C829.21 746.961 833.134 750.7 835.996 755.595L839.449 753.576L842.902 751.557C839.278 745.359 834.242 740.564 827.861 737.231L826.009 740.776ZM839.449 753.576L836.019 755.634C838.922 760.472 840.441 766.224 840.441 773.032H844.441H848.441C848.441 764.992 846.632 757.774 842.879 751.518L839.449 753.576ZM844.441 773.032H840.441C840.441 779.839 838.922 785.645 836.005 790.581L839.449 792.616L842.893 794.651C846.632 788.323 848.441 781.073 848.441 773.032H844.441ZM839.449 792.616L835.996 790.597C833.134 795.492 829.21 799.231 824.157 801.871L826.009 805.416L827.861 808.961C834.242 805.628 839.278 800.833 842.902 794.635L839.449 792.616ZM826.009 805.416L824.157 801.871C819.073 804.527 813.277 805.896 806.681 805.896V809.896V813.896C814.421 813.896 821.511 812.279 827.861 808.961L826.009 805.416ZM806.681 788.136V792.136C811.293 792.136 815.282 790.39 818.358 786.972L815.385 784.296L812.412 781.62C810.88 783.322 809.066 784.136 806.681 784.136V788.136ZM815.385 784.296L818.353 786.977C821.616 783.365 822.969 778.522 822.969 773.032H818.969H814.969C814.969 777.27 813.933 779.936 812.417 781.615L815.385 784.296ZM818.969 773.032H822.969C822.969 767.552 821.62 762.714 818.309 759.167L815.385 761.896L812.461 764.625C813.929 766.198 814.969 768.784 814.969 773.032H818.969ZM815.385 761.896L818.358 759.22C815.303 755.826 811.368 754.056 806.809 754.056V758.056V762.056C809.077 762.056 810.859 762.846 812.412 764.572L815.385 761.896ZM806.809 758.056V754.056C802.25 754.056 798.315 755.826 795.26 759.22L798.233 761.896L801.206 764.572C802.759 762.846 804.541 762.056 806.809 762.056V758.056ZM798.233 761.896L795.26 759.22C792.066 762.769 790.777 767.586 790.777 773.032H794.777H798.777C798.777 768.75 799.792 766.143 801.206 764.572L798.233 761.896ZM794.777 773.032H790.777C790.777 778.51 791.998 783.357 795.082 786.916L798.105 784.296L801.128 781.676C799.775 780.115 798.777 777.453 798.777 773.032H794.777ZM798.105 784.296L795.082 786.916C798.089 790.385 802.066 792.136 806.681 792.136V788.136V784.136C804.299 784.136 802.559 783.327 801.128 781.676L798.105 784.296ZM896.76 753.576L893.171 751.809L893.16 751.832L893.15 751.854L896.76 753.576ZM907.896 740.776L905.749 737.401L907.896 740.776ZM935.8 739.24L933.879 742.748L933.928 742.775L933.978 742.801L935.8 739.24ZM944.376 747.048L940.969 749.144L948.376 761.18V747.048H944.376ZM944.376 714.28V710.28H940.376V714.28H944.376ZM969.592 714.28H973.592V710.28H969.592V714.28ZM969.592 809V813H973.592V809H969.592ZM944.376 809H940.376V813H944.376V809ZM944.376 799.016H948.376V784.359L940.931 796.984L944.376 799.016ZM936.056 806.952L934.135 803.444L936.056 806.952ZM907.768 805.416L905.592 808.773L905.606 808.782L905.621 808.791L907.768 805.416ZM896.76 792.616L893.139 794.317L893.155 794.35L893.171 794.383L896.76 792.616ZM940.664 762.152L937.743 764.885L937.766 764.909L937.79 764.934L940.664 762.152ZM922.104 762.152L924.98 764.932L925.003 764.909L925.025 764.885L922.104 762.152ZM922.104 784.04L919.14 786.726L919.161 786.75L919.183 786.773L922.104 784.04ZM940.664 784.04L937.79 781.258L937.766 781.283L937.743 781.307L940.664 784.04ZM892.792 773.032H896.792C896.792 766.082 898.029 760.207 900.37 755.298L896.76 753.576L893.15 751.854C890.2 758.039 888.792 765.134 888.792 773.032H892.792ZM896.76 753.576L900.349 755.343C902.793 750.379 906.036 746.701 910.044 744.151L907.896 740.776L905.749 737.401C900.369 740.825 896.189 745.68 893.171 751.809L896.76 753.576ZM907.896 740.776L910.043 744.151C914.077 741.584 918.533 740.296 923.512 740.296V736.296V732.296C917.056 732.296 911.102 733.994 905.749 737.401L907.896 740.776ZM923.512 736.296V740.296C927.536 740.296 930.956 741.148 933.879 742.748L935.8 739.24L937.721 735.732C933.476 733.407 928.704 732.296 923.512 732.296V736.296ZM935.8 739.24L933.978 742.801C937.032 744.364 939.327 746.475 940.969 749.144L944.376 747.048L947.783 744.952C945.329 740.965 941.906 737.871 937.622 735.679L935.8 739.24ZM944.376 747.048H948.376V714.28H944.376H940.376V747.048H944.376ZM944.376 714.28V718.28H969.592V714.28V710.28H944.376V714.28ZM969.592 714.28H965.592V809H969.592H973.592V714.28H969.592ZM969.592 809V805H944.376V809V813H969.592V809ZM944.376 809H948.376V799.016H944.376H940.376V809H944.376ZM944.376 799.016L940.931 796.984C939.355 799.655 937.125 801.806 934.135 803.444L936.056 806.952L937.977 810.46C942.155 808.173 945.472 805.033 947.821 801.048L944.376 799.016ZM936.056 806.952L934.135 803.444C931.242 805.028 927.704 805.896 923.384 805.896V809.896V813.896C928.792 813.896 933.702 812.802 937.977 810.46L936.056 806.952ZM923.384 809.896V805.896C918.405 805.896 913.948 804.608 909.915 802.041L907.768 805.416L905.621 808.791C910.974 812.198 916.928 813.896 923.384 813.896V809.896ZM907.768 805.416L909.944 802.059C906.015 799.513 902.802 795.832 900.349 790.849L896.76 792.616L893.171 794.383C896.18 800.494 900.305 805.346 905.592 808.773L907.768 805.416ZM896.76 792.616L900.381 790.915C898.029 785.908 896.792 779.98 896.792 773.032H892.792H888.792C888.792 780.932 890.201 788.06 893.139 794.317L896.76 792.616ZM944.504 773.032H948.504C948.504 767.66 946.991 762.938 943.538 759.37L940.664 762.152L937.79 764.934C939.457 766.657 940.504 769.188 940.504 773.032H944.504ZM940.664 762.152L943.585 759.419C940.343 755.954 936.208 754.184 931.448 754.184V758.184V762.184C934.026 762.184 936.036 763.06 937.743 764.885L940.664 762.152ZM931.448 758.184V754.184C926.632 754.184 922.445 755.933 919.183 759.419L922.104 762.152L925.025 764.885C926.713 763.081 928.755 762.184 931.448 762.184V758.184ZM922.104 762.152L919.228 759.372C915.826 762.891 914.392 767.642 914.392 773.032H918.392H922.392C922.392 769.035 923.433 766.533 924.98 764.932L922.104 762.152ZM918.392 773.032H914.392C914.392 778.374 915.843 783.088 919.14 786.726L922.104 784.04L925.068 781.354C923.415 779.531 922.392 776.906 922.392 773.032H918.392ZM922.104 784.04L919.183 786.773C922.445 790.259 926.632 792.008 931.448 792.008V788.008V784.008C928.755 784.008 926.713 783.111 925.025 781.307L922.104 784.04ZM931.448 788.008V792.008C936.208 792.008 940.343 790.238 943.585 786.773L940.664 784.04L937.743 781.307C936.036 783.132 934.026 784.008 931.448 784.008V788.008ZM940.664 784.04L943.538 786.822C947.004 783.241 948.504 778.465 948.504 773.032H944.504H940.504C940.504 776.985 939.444 779.549 937.79 781.258L940.664 784.04ZM1099.6 737.192H1103.6V733.192H1099.6V737.192ZM1099.6 809V813H1103.6V809H1099.6ZM1074.38 809H1070.38V813H1074.38V809ZM1074.38 798.76H1078.38V785.402L1071.04 796.562L1074.38 798.76ZM1065.55 806.696L1067.41 810.241L1067.44 810.225L1067.47 810.208L1065.55 806.696ZM1032.78 801.448L1029.75 804.059L1029.78 804.084L1029.8 804.108L1032.78 801.448ZM1025.62 737.192V733.192H1021.62V737.192H1025.62ZM1050.58 737.192H1054.58V733.192H1050.58V737.192ZM1053.78 785.448L1050.79 788.112L1050.84 788.168L1050.89 788.223L1053.78 785.448ZM1071.18 785.448L1074.12 788.166L1074.14 788.139L1074.17 788.112L1071.18 785.448ZM1074.38 737.192V733.192H1070.38V737.192H1074.38ZM1099.6 737.192H1095.6V809H1099.6H1103.6V737.192H1099.6ZM1099.6 809V805H1074.38V809V813H1099.6V809ZM1074.38 809H1078.38V798.76H1074.38H1070.38V809H1074.38ZM1074.38 798.76L1071.04 796.562C1069.31 799.202 1066.88 801.418 1063.64 803.184L1065.55 806.696L1067.47 810.208C1071.74 807.878 1075.2 804.803 1077.73 800.958L1074.38 798.76ZM1065.55 806.696L1063.7 803.151C1060.6 804.773 1056.94 805.64 1052.62 805.64V809.64V813.64C1058.04 813.64 1063 812.544 1067.41 810.241L1065.55 806.696ZM1052.62 809.64V805.64C1045.22 805.64 1039.76 803.27 1035.77 798.788L1032.78 801.448L1029.8 804.108C1035.53 810.548 1043.3 813.64 1052.62 813.64V809.64ZM1032.78 801.448L1035.81 798.837C1031.83 794.208 1029.62 787.721 1029.62 778.92H1025.62H1021.62C1021.62 789.063 1024.18 797.594 1029.75 804.059L1032.78 801.448ZM1025.62 778.92H1029.62V737.192H1025.62H1021.62V778.92H1025.62ZM1025.62 737.192V741.192H1050.58V737.192V733.192H1025.62V737.192ZM1050.58 737.192H1046.58V775.72H1050.58H1054.58V737.192H1050.58ZM1050.58 775.72H1046.58C1046.58 780.516 1047.84 784.803 1050.79 788.112L1053.78 785.448L1056.76 782.784C1055.45 781.314 1054.58 779.116 1054.58 775.72H1050.58ZM1053.78 785.448L1050.89 788.223C1053.96 791.408 1057.95 792.904 1062.48 792.904V788.904V784.904C1059.84 784.904 1058.03 784.096 1056.66 782.673L1053.78 785.448ZM1062.48 788.904V792.904C1067.06 792.904 1071.1 791.427 1074.12 788.166L1071.18 785.448L1068.25 782.73C1067 784.077 1065.24 784.904 1062.48 784.904V788.904ZM1071.18 785.448L1074.17 788.112C1077.12 784.803 1078.38 780.516 1078.38 775.72H1074.38H1070.38C1070.38 779.116 1069.51 781.314 1068.2 782.784L1071.18 785.448ZM1074.38 775.72H1078.38V737.192H1074.38H1070.38V775.72H1074.38ZM1074.38 737.192V741.192H1099.6V737.192V733.192H1074.38V737.192ZM1156.63 753.576L1160.13 755.514L1156.63 753.576ZM1169.43 740.776L1167.53 737.254L1167.52 737.26L1167.51 737.267L1169.43 740.776ZM1211.41 743.848L1208.9 746.959L1208.91 746.969L1208.93 746.98L1211.41 743.848ZM1223.45 764.712V768.712H1228.33L1227.37 763.928L1223.45 764.712ZM1196.82 764.712L1193.02 765.956L1193.92 768.712H1196.82V764.712ZM1180.31 761.64L1177.05 759.325L1177.04 759.336L1177.03 759.346L1180.31 761.64ZM1180.31 784.552L1177 786.795L1177.02 786.831L1177.05 786.867L1180.31 784.552ZM1196.82 781.48V777.48H1193.87L1193 780.299L1196.82 781.48ZM1223.45 781.48L1227.37 782.272L1228.33 777.48H1223.45V781.48ZM1211.41 802.344L1213.93 805.455L1211.41 802.344ZM1169.43 805.416L1167.51 808.925L1167.52 808.932L1167.53 808.938L1169.43 805.416ZM1156.63 792.616L1160.13 790.678L1156.63 792.616ZM1152.02 773.032H1156.02C1156.02 766.17 1157.44 760.373 1160.13 755.514L1156.63 753.576L1153.13 751.638C1149.68 757.872 1148.02 765.046 1148.02 773.032H1152.02ZM1156.63 753.576L1160.13 755.514C1162.84 750.617 1166.57 746.901 1171.35 744.285L1169.43 740.776L1167.51 737.267C1161.37 740.624 1156.56 745.441 1153.13 751.638L1156.63 753.576ZM1169.43 740.776L1171.33 744.298C1176.22 741.662 1181.87 740.296 1188.37 740.296V736.296V732.296C1180.71 732.296 1173.73 733.916 1167.53 737.254L1169.43 740.776ZM1188.37 736.296V740.296C1196.72 740.296 1203.48 742.579 1208.9 746.959L1211.41 743.848L1213.93 740.737C1206.89 735.048 1198.28 732.296 1188.37 732.296V736.296ZM1211.41 743.848L1208.93 746.98C1214.31 751.255 1217.89 757.318 1219.52 765.496L1223.45 764.712L1227.37 763.928C1225.42 754.186 1220.98 746.34 1213.9 740.716L1211.41 743.848ZM1223.45 764.712V760.712H1196.82V764.712V768.712H1223.45V764.712ZM1196.82 764.712L1200.62 763.468C1199.68 760.593 1198.18 758.076 1195.9 756.287C1193.59 754.47 1190.82 753.672 1187.86 753.672V757.672V761.672C1189.34 761.672 1190.28 762.048 1190.96 762.577C1191.67 763.135 1192.43 764.138 1193.02 765.956L1196.82 764.712ZM1187.86 757.672V753.672C1183.37 753.672 1179.65 755.657 1177.05 759.325L1180.31 761.64L1183.57 763.955C1184.72 762.332 1186.04 761.672 1187.86 761.672V757.672ZM1180.31 761.64L1177.03 759.346C1174.56 762.876 1173.62 767.636 1173.62 773.032H1177.62H1181.62C1181.62 768.358 1182.47 765.524 1183.59 763.934L1180.31 761.64ZM1177.62 773.032H1173.62C1173.62 778.442 1174.57 783.207 1177 786.795L1180.31 784.552L1183.62 782.309C1182.47 780.606 1181.62 777.691 1181.62 773.032H1177.62ZM1180.31 784.552L1177.05 786.867C1179.65 790.535 1183.37 792.52 1187.86 792.52V788.52V784.52C1186.04 784.52 1184.72 783.86 1183.57 782.237L1180.31 784.552ZM1187.86 788.52V792.52C1190.84 792.52 1193.64 791.733 1195.97 789.905C1198.26 788.101 1199.75 785.558 1200.64 782.661L1196.82 781.48L1193 780.299C1192.45 782.095 1191.71 783.073 1191.02 783.615C1190.36 784.134 1189.4 784.52 1187.86 784.52V788.52ZM1196.82 781.48V785.48H1223.45V781.48V777.48H1196.82V781.48ZM1223.45 781.48L1219.53 780.688C1217.89 788.776 1214.31 794.86 1208.9 799.233L1211.41 802.344L1213.93 805.455C1220.98 799.758 1225.42 791.933 1227.37 782.272L1223.45 781.48ZM1211.41 802.344L1208.9 799.233C1203.48 803.613 1196.72 805.896 1188.37 805.896V809.896V813.896C1198.28 813.896 1206.89 811.144 1213.93 805.455L1211.41 802.344ZM1188.37 809.896V805.896C1181.87 805.896 1176.22 804.53 1171.33 801.894L1169.43 805.416L1167.53 808.938C1173.73 812.276 1180.71 813.896 1188.37 813.896V809.896ZM1169.43 805.416L1171.35 801.907C1166.57 799.291 1162.84 795.575 1160.13 790.678L1156.63 792.616L1153.13 794.554C1156.56 800.751 1161.37 805.568 1167.51 808.925L1169.43 805.416ZM1156.63 792.616L1160.13 790.678C1157.44 785.825 1156.02 779.988 1156.02 773.032H1152.02H1148.02C1148.02 781.094 1149.67 788.314 1153.13 794.554L1156.63 792.616ZM1318.48 787.624H1322.48V783.624H1318.48V787.624ZM1318.48 809V813H1322.48V809H1318.48ZM1280.08 758.056H1284.08V754.056H1280.08V758.056ZM1271.24 758.056H1267.24V762.056H1271.24V758.056ZM1271.24 737.192V733.192H1267.24V737.192H1271.24ZM1280.08 737.192V741.192H1284.08V737.192H1280.08ZM1280.08 719.784V715.784H1276.08V719.784H1280.08ZM1305.29 719.784H1309.29V715.784H1305.29V719.784ZM1305.29 737.192H1301.29V741.192H1305.29V737.192ZM1318.35 737.192H1322.35V733.192H1318.35V737.192ZM1318.35 758.056V762.056H1322.35V758.056H1318.35ZM1305.29 758.056V754.056H1301.29V758.056H1305.29ZM1306.57 786.344L1303.74 789.172L1303.81 789.24L1303.88 789.304L1306.57 786.344ZM1318.48 787.624H1314.48V809H1318.48H1322.48V787.624H1318.48ZM1318.48 809V805H1307.6V809V813H1318.48V809ZM1307.6 809V805C1299.03 805 1293.34 802.88 1289.77 799.342C1286.21 795.812 1284.08 790.198 1284.08 781.736H1280.08H1276.08C1276.08 791.45 1278.53 799.468 1284.14 805.026C1289.74 810.576 1297.82 813 1307.6 813V809ZM1280.08 781.736H1284.08V758.056H1280.08H1276.08V781.736H1280.08ZM1280.08 758.056V754.056H1271.24V758.056V762.056H1280.08V758.056ZM1271.24 758.056H1275.24V737.192H1271.24H1267.24V758.056H1271.24ZM1271.24 737.192V741.192H1280.08V737.192V733.192H1271.24V737.192ZM1280.08 737.192H1284.08V719.784H1280.08H1276.08V737.192H1280.08ZM1280.08 719.784V723.784H1305.29V719.784V715.784H1280.08V719.784ZM1305.29 719.784H1301.29V737.192H1305.29H1309.29V719.784H1305.29ZM1305.29 737.192V741.192H1318.35V737.192V733.192H1305.29V737.192ZM1318.35 737.192H1314.35V758.056H1318.35H1322.35V737.192H1318.35ZM1318.35 758.056V754.056H1305.29V758.056V762.056H1318.35V758.056ZM1305.29 758.056H1301.29V782.12H1305.29H1309.29V758.056H1305.29ZM1305.29 782.12H1301.29C1301.29 784.509 1301.79 787.215 1303.74 789.172L1306.57 786.344L1309.4 783.516C1309.53 783.646 1309.5 783.699 1309.44 783.488C1309.37 783.262 1309.29 782.831 1309.29 782.12H1305.29ZM1306.57 786.344L1303.88 789.304C1305.92 791.155 1308.68 791.624 1311.18 791.624V787.624V783.624C1310.36 783.624 1309.82 783.54 1309.5 783.45C1309.18 783.362 1309.17 783.296 1309.26 783.384L1306.57 786.344ZM1311.18 787.624V791.624H1318.48V787.624V783.624H1311.18V787.624ZM1385.41 806.696L1383.79 810.356L1383.83 810.373L1383.87 810.388L1385.41 806.696ZM1373.38 797.736L1370.18 800.147L1370.21 800.187L1370.24 800.226L1373.38 797.736ZM1368.51 784.808V780.808H1364.22L1364.52 785.093L1368.51 784.808ZM1392.83 784.808L1396.79 784.222L1396.28 780.808H1392.83V784.808ZM1406.4 783.528L1407.99 779.86L1406.4 783.528ZM1396.67 780.712L1397.55 776.811L1397.51 776.8L1397.46 776.79L1396.67 780.712ZM1383.87 777.256L1382.47 781.001L1383.87 777.256ZM1374.91 770.984L1371.87 773.58L1371.89 773.605L1371.91 773.63L1374.91 770.984ZM1374.65 747.688L1377.97 749.926L1377.98 749.907L1378 749.888L1374.65 747.688ZM1384.77 739.368L1383.12 735.724L1383.1 735.73L1383.09 735.736L1384.77 739.368ZM1423.17 743.208L1420.56 746.245L1423.17 743.208ZM1432.51 761.384V765.384H1436.99L1436.49 760.932L1432.51 761.384ZM1409.85 761.384L1405.92 762.112L1406.53 765.384H1409.85V761.384ZM1406.78 756.136L1404.22 759.209L1404.31 759.285L1404.41 759.356L1406.78 756.136ZM1395.78 755.368L1393.5 752.079L1393.44 752.122L1393.38 752.168L1395.78 755.368ZM1397.18 762.536L1395.46 766.145L1395.52 766.176L1395.59 766.204L1397.18 762.536ZM1406.65 765.224L1405.81 769.134L1405.82 769.136L1406.65 765.224ZM1419.58 768.936L1418.1 772.65L1418.11 772.656L1418.13 772.662L1419.58 768.936ZM1428.67 775.592L1425.6 778.153L1425.64 778.199L1425.68 778.244L1428.67 775.592ZM1428.93 799.144L1425.72 796.757L1425.7 796.784L1425.68 796.811L1428.93 799.144ZM1418.56 807.08L1420.12 810.764L1420.13 810.757L1420.15 810.749L1418.56 807.08ZM1402.82 809.896V805.896C1396.77 805.896 1391.5 804.903 1386.95 803.004L1385.41 806.696L1383.87 810.388C1389.55 812.756 1395.89 813.896 1402.82 813.896V809.896ZM1385.41 806.696L1387.02 803.036C1382.49 801.04 1379.03 798.423 1376.51 795.246L1373.38 797.736L1370.24 800.226C1373.69 804.558 1378.25 807.915 1383.79 810.356L1385.41 806.696ZM1373.38 797.736L1376.57 795.325C1374.13 792.098 1372.79 788.527 1372.5 784.523L1368.51 784.808L1364.52 785.093C1364.92 790.646 1366.82 795.694 1370.18 800.147L1373.38 797.736ZM1368.51 784.808V788.808H1392.83V784.808V780.808H1368.51V784.808ZM1392.83 784.808L1388.87 785.394C1389.36 788.703 1390.98 791.488 1393.71 793.439L1396.03 790.184L1398.36 786.929C1397.5 786.32 1396.98 785.521 1396.79 784.222L1392.83 784.808ZM1396.03 790.184L1393.71 793.439C1396.3 795.294 1399.38 796.104 1402.69 796.104V792.104V788.104C1400.7 788.104 1399.34 787.634 1398.36 786.929L1396.03 790.184ZM1402.69 792.104V796.104C1405.25 796.104 1407.78 795.574 1409.88 794.079L1407.55 790.824L1405.23 787.569C1404.93 787.78 1404.22 788.104 1402.69 788.104V792.104ZM1407.55 790.824L1409.88 794.079C1412.03 792.541 1413.34 790.263 1413.34 787.496H1409.34H1405.34C1405.34 787.544 1405.34 787.553 1405.34 787.533C1405.35 787.513 1405.36 787.484 1405.37 787.456C1405.39 787.428 1405.4 787.423 1405.38 787.439C1405.37 787.456 1405.32 787.502 1405.23 787.569L1407.55 790.824ZM1409.34 787.496H1413.34C1413.34 785.822 1412.87 784.189 1411.82 782.777C1410.8 781.409 1409.43 780.484 1407.99 779.86L1406.4 783.528L1404.8 787.196C1405.33 787.425 1405.43 787.589 1405.39 787.543C1405.38 787.52 1405.36 787.481 1405.34 787.442C1405.33 787.407 1405.34 787.416 1405.34 787.496H1409.34ZM1406.4 783.528L1407.99 779.86C1405.66 778.846 1402.11 777.841 1397.55 776.811L1396.67 780.712L1395.79 784.613C1400.28 785.631 1403.21 786.503 1404.8 787.196L1406.4 783.528ZM1396.67 780.712L1397.46 776.79C1392.46 775.791 1388.42 774.69 1385.28 773.511L1383.87 777.256L1382.47 781.001C1386.15 782.382 1390.64 783.585 1395.89 784.634L1396.67 780.712ZM1383.87 777.256L1385.28 773.511C1382.51 772.475 1380.06 770.779 1377.91 768.338L1374.91 770.984L1371.91 773.63C1374.88 776.992 1378.4 779.477 1382.47 781.001L1383.87 777.256ZM1374.91 770.984L1377.95 768.388C1376.26 766.404 1375.2 763.495 1375.2 759.208H1371.2H1367.2C1367.2 764.82 1368.61 769.761 1371.87 773.58L1374.91 770.984ZM1371.2 759.208H1375.2C1375.2 755.708 1376.13 752.653 1377.97 749.926L1374.65 747.688L1371.34 745.45C1368.57 749.549 1367.2 754.174 1367.2 759.208H1371.2ZM1374.65 747.688L1378 749.888C1379.82 747.11 1382.57 744.788 1386.44 743L1384.77 739.368L1383.09 735.736C1378.09 738.044 1374.09 741.268 1371.31 745.488L1374.65 747.688ZM1384.77 739.368L1386.42 743.012C1390.3 741.253 1395.13 740.296 1401.02 740.296V736.296V732.296C1394.29 732.296 1388.28 733.387 1383.12 735.724L1384.77 739.368ZM1401.02 736.296V740.296C1409.77 740.296 1416.12 742.436 1420.56 746.245L1423.17 743.208L1425.77 740.171C1419.46 734.764 1411.05 732.296 1401.02 732.296V736.296ZM1423.17 743.208L1420.56 746.245C1425.12 750.148 1427.79 755.256 1428.54 761.836L1432.51 761.384L1436.49 760.932C1435.53 752.493 1431.97 745.484 1425.77 740.171L1423.17 743.208ZM1432.51 761.384V757.384H1409.85V761.384V765.384H1432.51V761.384ZM1409.85 761.384L1413.79 760.656C1413.21 757.528 1411.73 754.811 1409.16 752.916L1406.78 756.136L1404.41 759.356C1405.08 759.851 1405.65 760.632 1405.92 762.112L1409.85 761.384ZM1406.78 756.136L1409.34 753.063C1406.89 751.014 1403.79 750.216 1400.51 750.216V754.216V758.216C1402.53 758.216 1403.61 758.698 1404.22 759.209L1406.78 756.136ZM1400.51 754.216V750.216C1398.04 750.216 1395.54 750.665 1393.5 752.079L1395.78 755.368L1398.05 758.657C1398.23 758.535 1398.88 758.216 1400.51 758.216V754.216ZM1395.78 755.368L1393.38 752.168C1391.27 753.748 1390.24 756.041 1390.24 758.568H1394.24H1398.24C1398.24 758.477 1398.25 758.432 1398.25 758.424C1398.25 758.42 1398.25 758.424 1398.25 758.434C1398.24 758.444 1398.24 758.458 1398.23 758.475C1398.22 758.492 1398.21 758.51 1398.2 758.527C1398.19 758.543 1398.18 758.557 1398.17 758.568C1398.15 758.59 1398.15 758.588 1398.17 758.568L1395.78 755.368ZM1394.24 758.568H1390.24C1390.24 762.265 1392.56 764.76 1395.46 766.145L1397.18 762.536L1398.91 758.927C1398.63 758.793 1398.44 758.675 1398.33 758.588C1398.28 758.545 1398.24 758.512 1398.22 758.49C1398.21 758.479 1398.2 758.47 1398.19 758.465C1398.19 758.462 1398.19 758.46 1398.19 758.459C1398.19 758.457 1398.19 758.457 1398.19 758.457C1398.19 758.457 1398.19 758.457 1398.19 758.458C1398.19 758.46 1398.19 758.462 1398.19 758.464C1398.2 758.469 1398.2 758.476 1398.2 758.484C1398.21 758.502 1398.22 758.522 1398.23 758.543C1398.24 758.59 1398.24 758.606 1398.24 758.568H1394.24ZM1397.18 762.536L1395.59 766.204C1397.93 767.224 1401.42 768.186 1405.81 769.134L1406.65 765.224L1407.5 761.314C1403.19 760.385 1400.36 759.555 1398.78 758.868L1397.18 762.536ZM1406.65 765.224L1405.82 769.136C1410.89 770.217 1414.97 771.397 1418.1 772.65L1419.58 768.936L1421.07 765.222C1417.37 763.744 1412.83 762.45 1407.49 761.312L1406.65 765.224ZM1419.58 768.936L1418.13 772.662C1420.96 773.766 1423.44 775.565 1425.6 778.153L1428.67 775.592L1431.74 773.031C1428.78 769.475 1425.21 766.837 1421.04 765.21L1419.58 768.936ZM1428.67 775.592L1425.68 778.244C1427.5 780.3 1428.64 783.347 1428.64 787.88H1432.64H1436.64C1436.64 782.002 1435.14 776.858 1431.67 772.94L1428.67 775.592ZM1432.64 787.88H1428.64C1428.64 791.209 1427.67 794.125 1425.72 796.757L1428.93 799.144L1432.14 801.531C1435.13 797.507 1436.64 792.914 1436.64 787.88H1432.64ZM1428.93 799.144L1425.68 796.811C1423.79 799.443 1420.96 801.677 1416.97 803.411L1418.56 807.08L1420.15 810.749C1425.2 808.558 1429.29 805.501 1432.18 801.477L1428.93 799.144ZM1418.56 807.08L1417 803.396C1413.17 805.019 1408.47 805.896 1402.82 805.896V809.896V813.896C1409.28 813.896 1415.08 812.896 1420.12 810.764L1418.56 807.08Z" fill="#FCF8F8" mask="url(#path-1-outside-1_57_619)"/>
<circle opacity="0.5" cx="1279" cy="1174" r="239" fill="#B7E4B9"/>
<circle opacity="0.5" cx="26" cy="1991" r="282" fill="#EFAAA6"/>
<ellipse opacity="0.5" cx="620.5" cy="2701" rx="150.5" ry="145" fill="#76CC7A"/>
<circle opacity="0.5" cx="1448.5" cy="3189.5" r="431.5" fill="#EFAAA6"/>
<circle opacity="0.5" cx="37" cy="3388" r="83" fill="#B7E4B9"/>
</g>
<defs>
<clipPath id="clip0_57_619">
<rect width="1440" height="4472" fill="white"/>
</clipPath>
</defs>
</svg>
